<svg width="1024" height="1024" viewBox="0 0 1024 1024" fill="none" xmlns="http://www.w3.org/2000/svg">
  <rect width="1024" height="1024" rx="232" fill="url(#bg)" />
  <path d="M254 252C254 224.386 276.386 202 304 202H720C747.614 202 770 224.386 770 252V772L512 650L254 772V252Z" fill="#171814" fill-opacity="0.58"/>
  <path d="M324 282C324 265.431 337.431 252 354 252H670C686.569 252 700 265.431 700 282V654L512 565L324 654V282Z" fill="#F3F0EA"/>
  <path d="M398 368C398 343.699 417.699 324 442 324H582C606.301 324 626 343.699 626 368V514H560V389H464V514H398V368Z" fill="#1D211E"/>
  <path d="M398 544H626V606H398V544Z" fill="#1D211E"/>
  <circle cx="742" cy="230" r="62" fill="#7BC4B8"/>
  <path d="M742 191L754.338 216.006L781.93 220.015L761.965 239.474L766.676 266.954L742 253.98L717.324 266.954L722.035 239.474L702.07 220.015L729.662 216.006L742 191Z" fill="#171814"/>
  <defs>
    <linearGradient id="bg" x1="144" y1="88" x2="884" y2="932" gradientUnits="userSpaceOnUse">
      <stop stop-color="#D2A86B"/>
      <stop offset="0.55" stop-color="#46504A"/>
      <stop offset="1" stop-color="#101014"/>
    </linearGradient>
  </defs>
</svg>
